<?xml version="1.0" encoding="utf-8" standalone="no"?>
<!DOCTYPE svg PUBLIC "-//W3C//DTD SVG 1.1//EN" "http://www.w3.org/Graphics/SVG/1.1/DTD/svg11.dtd">
<svg version="1.1" width="2384pt" height="3370pt" viewBox="0 0 2383.92 3370.32" xmlns="http://www.w3.org/2000/svg">
  <defs />
  <g id="Default">
    <path d="M1796.4989,1959.949 A18.22671,18.22671 0 0 0 1828.6854,1959.949 L1866.442,1888.9391 A18.22671,18.22671 0 0 0 1866.442,1871.8252 L1838.3767,1819.0421 A18.22671,18.22671 0 0 0 1822.2834,1809.3723 L1746.7703,1809.3723 A18.22671,18.22671 0 0 0 1730.677,1836.156 z" stroke="#000000" stroke-width="0.24" stroke-linecap="round" stroke-linejoin="round" fill="none" />
    <path d="M2072.9675,1809.3723 C2067.084,1809.1398 2059.7727,1812.9994 2056.7766,1819.2273 C2030.0862,1869.4174 2003.4014,1919.6254 1976.708,1969.8052 C1963.3613,1994.895 1950.0126,2019.9778 1936.6763,2045.1019 C1923.34,2070.2258 1910.0162,2095.3914 1896.5978,2120.2444 C1895.8993,2121.5378 1895.2007,2122.8308 1894.3724,2124.039 C1893.5441,2125.2478 1892.5862,2126.372 1891.5463,2127.438 C1889.4663,2129.5696 1887.0577,2131.4675 1884.4207,2132.9692 C1882.001,2134.3472 1879.389,2135.3918 1876.7644,2136.076 C1874.1399,2136.76 1871.5027,2137.0837 1868.8656,2137.0837 C1866.2285,2137.0837 1863.5914,2136.76 1860.9668,2136.076 C1858.3423,2135.3918 1855.7301,2134.3472 1853.3105,2132.9692 C1850.6733,2131.4675 1848.265,2129.5696 1846.185,2127.4377 C1845.145,2126.372 1844.1871,2125.2478 1843.3589,2124.039 C1842.5306,2122.8308 1841.8319,2121.5378 1841.1335,2120.2444 C1827.715,2095.3914 1814.3912,2070.2258 1801.055,2045.1019 C1787.7188,2019.9778 1774.3699,1994.895 1761.0232,1969.8052 C1734.3298,1919.6254 1707.6451,1869.4174 1680.9547,1819.2273 C1679.4647,1816.2059 1676.8018,1813.5767 1673.9458,1811.854 C1671.0898,1810.1313 1668.041,1809.3153 1664.8569,1809.3495 C1660.2256,1809.399 1655.3079,1811.2468 1651.8755,1814.7108 C1648.443,1818.1747 1646.4958,1823.2546 1646.4874,1827.6818 C1646.4846,1829.1344 1646.6907,1830.5168 1647.0703,1831.9766 C1647.45,1833.4363 1648.0033,1834.9733 1648.7897,1836.3782 C1681.105,1897.1542 1713.4193,1957.9315 1745.7349,2018.707 C1778.0505,2079.483 1810.3676,2140.2568 1842.677,2201.04 C1844.3586,2204.2039 1846.0403,2207.3674 1847.7295,2210.5222 C1848.5741,2212.0994 1849.4207,2213.6746 1850.2494,2215.2708 C1851.0781,2216.8672 1851.8892,2218.485 1852.776,2220.0115 C1853.5896,2221.412 1854.467,2222.7358 1855.5813,2223.9385 C1856.6957,2225.141 1858.047,2226.2227 1859.4889,2227.0881 C1862.3727,2228.819 1865.6191,2229.6855 1868.8656,2229.6855 C1872.112,2229.6855 1875.3585,2228.819 1878.2423,2227.0881 C1879.6842,2226.2227 1881.0355,2225.141 1882.1499,2223.9385 C1883.2642,2222.7358 1884.1416,2221.412 1884.9552,2220.0115 C1885.8419,2218.485 1886.653,2216.8672 1887.4818,2215.2708 C1888.3107,2213.6746 1889.1571,2212.0994 1890.0017,2210.5222 C1891.691,2207.3674 1893.3727,2204.2039 1895.0543,2201.04 C1927.3636,2140.2568 1959.6807,2079.4827 1991.9962,2018.707 C2024.3121,1957.9315 2056.6262,1897.1542 2088.9414,1836.3782 C2089.7268,1834.9728 2090.2834,1833.4375 2090.661,1831.9766 C2091.038,1830.5156 2091.236,1829.129 2091.2336,1827.6766 C2091.2263,1823.2501 2089.3599,1818.2112 2085.8557,1814.7108 C2082.3516,1811.2104 2077.21,1809.2484 2072.9675,1809.3723 z" stroke="#000000" stroke-width="0.24" stroke-linecap="round" stroke-linejoin="round" fill="none" />
    <path d="M1312.632,1931.2784 C1310.7529,1927.4744 1306.5967,1923.8561 1301.8677,1922.4052 C1297.1387,1920.9542 1291.837,1921.6707 1287.8854,1923.7489 C1286.3418,1924.5608 1285.004,1925.5804 1283.7253,1926.8726 C1282.4467,1928.1648 1281.2269,1929.7294 1280.3496,1931.46 C1264.8682,1960.5768 1249.3867,1989.6935 1233.9052,2018.8102 C1232.3656,2021.504 1231.6577,2024.7944 1231.6488,2027.8074 C1231.6399,2030.8204 1232.3301,2033.5562 1233.708,2036.0803 C1235.9128,2040.119 1239.8785,2043.6167 1244.5455,2045.0283 C1249.2125,2046.44 1254.5807,2045.7659 1258.5365,2043.69 C1260.0817,2042.8793 1261.4114,2041.8546 1262.688,2040.5609 C1263.9644,2039.2673 1265.1875,2037.7047 1266.0636,2035.9734 C1281.545,2006.8568 1297.0266,1977.7401 1312.508,1948.6234 C1315.6772,1943.1362 1315.2761,1935.9182 1312.632,1931.2784 z" stroke="#000000" stroke-width="0.24" stroke-linecap="round" stroke-linejoin="round" fill="none" />
    <path d="M1388.0631,1806.5271 A18.22671,18.22671 0 0 0 1371.9698,1779.7434 L1298.024,1779.7434 A18.22671,18.22671 0 0 0 1281.9309,1806.5271 L1318.9037,1876.0629 A18.22671,18.22671 0 0 0 1351.0902,1876.063 z" stroke="#000000" stroke-width="0.24" stroke-linecap="round" stroke-linejoin="round" fill="none" />
    <path d="M1195.323,1963.8256 A18.22671,18.22671 0 0 0 1227.5095,1963.8256 L1274.1737,1876.0629 A18.22671,18.22671 0 0 0 1274.1737,1858.9491 L1237.2008,1789.4132 A18.22671,18.22671 0 0 0 1221.1075,1779.7434 L1127.7792,1779.7434 A18.22671,18.22671 0 0 0 1111.6859,1806.5271 z" stroke="#000000" stroke-width="0.24" stroke-linecap="round" stroke-linejoin="round" fill="none" />
    <path d="M1453.9763,1779.7434 C1448.0929,1779.511 1440.7816,1783.3704 1437.7854,1789.5984 C1411.0951,1839.7885 1384.4103,1889.9965 1357.7169,1940.1761 C1344.3702,1965.266 1331.0214,1990.3489 1317.6852,2015.4729 C1304.3489,2040.5969 1291.0251,2065.7622 1277.6066,2090.6155 C1276.9082,2091.9092 1276.2095,2093.2017 1275.3812,2094.4104 C1274.5531,2095.619 1273.5952,2096.7432 1272.5552,2097.809 C1270.4752,2099.9407 1268.0668,2101.8384 1265.4297,2103.3403 C1263.01,2104.7183 1260.3978,2105.7627 1257.7733,2106.447 C1255.1487,2107.131 1252.5116,2107.4548 1249.8745,2107.4548 C1247.2374,2107.4548 1244.6003,2107.131 1241.9757,2106.447 C1239.3512,2105.7627 1236.7391,2104.7183 1234.3195,2103.3403 C1231.6824,2101.8384 1229.2738,2099.9407 1227.1938,2097.809 C1226.1539,2096.7432 1225.196,2095.619 1224.3677,2094.4104 C1223.5396,2093.2017 1222.8408,2091.9092 1222.1425,2090.6155 C1208.7239,2065.7622 1195.4001,2040.5969 1182.0638,2015.4729 C1168.7275,1990.3489 1155.3788,1965.266 1142.0321,1940.1761 C1115.3387,1889.9965 1088.6539,1839.7885 1061.9636,1789.5984 C1060.4736,1786.5771 1057.8105,1783.9476 1054.9547,1782.225 C1052.0988,1780.5023 1049.0499,1779.6865 1045.8658,1779.7205 C1041.2345,1779.77 1036.3169,1781.6179 1032.8844,1785.0819 C1029.452,1788.5459 1027.5046,1793.6259 1027.4963,1798.053 C1027.4935,1799.5056 1027.6996,1800.888 1028.0792,1802.3477 C1028.4589,1803.8073 1029.0122,1805.3445 1029.7985,1806.7493 C1062.1139,1867.5253 1094.4281,1928.3025 1126.7439,1989.078 C1159.0594,2049.8538 1191.3765,2110.6277 1223.6858,2171.4111 C1225.3674,2174.575 1227.0491,2177.7388 1228.7384,2180.893 C1229.583,2182.4705 1230.4296,2184.0454 1231.2583,2185.6418 C1232.0872,2187.238 1232.8982,2188.856 1233.7849,2190.3826 C1234.5985,2191.7832 1235.476,2193.107 1236.5903,2194.3096 C1237.7046,2195.5122 1239.0559,2196.5938 1240.4978,2197.4592 C1243.3816,2199.1902 1246.628,2200.0566 1249.8745,2200.0566 C1253.121,2200.0566 1256.3674,2199.1902 1259.2513,2197.4592 C1260.6931,2196.5938 1262.0444,2195.5122 1263.1588,2194.3096 C1264.2731,2193.107 1265.1505,2191.7832 1265.9641,2190.3826 C1266.851,2188.856 1267.662,2187.238 1268.4907,2185.6418 C1269.3195,2184.0454 1270.166,2182.4705 1271.0107,2180.893 C1272.6998,2177.7388 1274.3816,2174.575 1276.0632,2171.4111 C1308.3726,2110.6277 1340.6896,2049.8538 1373.0052,1989.078 C1405.3209,1928.3025 1437.6351,1867.5253 1469.9504,1806.7493 C1470.7357,1805.3439 1471.2926,1803.8086 1471.6698,1802.3477 C1472.0471,1800.8867 1472.245,1799.5002 1472.2427,1798.0477 C1472.2354,1793.6212 1470.3688,1788.5823 1466.8646,1785.0819 C1463.3605,1781.5815 1458.2189,1779.6196 1453.9763,1779.7434 z" stroke="#000000" stroke-width="0.24" stroke-linecap="round" stroke-linejoin="round" fill="none" />
    <path d="M652.1304,1931.9847 C650.25134,1928.1807 646.09503,1924.5624 641.36615,1923.1115 C636.63715,1921.6605 631.33545,1922.377 627.3838,1924.4552 C625.84015,1925.2671 624.5025,1926.2867 623.2238,1927.5789 C621.94507,1928.8711 620.7253,1930.4357 619.848,1932.1663 C601.86865,1965.9808 583.8893,1999.7953 565.9099,2033.61 C564.3703,2036.304 563.6624,2039.5942 563.65356,2042.6072 C563.64465,2045.6204 564.3347,2048.356 565.7127,2050.8801 C567.9175,2054.919 571.88324,2058.4165 576.55023,2059.8284 C581.2172,2061.24 586.58545,2060.5657 590.5412,2058.4897 C592.0864,2057.6792 593.41614,2056.6545 594.69257,2055.3606 C595.96906,2054.0671 597.1923,2052.505 598.06836,2050.7732 C616.0477,2016.9589 634.0271,1983.1444 652.0065,1949.3297 C655.1757,1943.8425 654.77454,1936.6245 652.1304,1931.9847 z" stroke="#000000" stroke-width="0.24" stroke-linecap="round" stroke-linejoin="round" fill="none" />
    <path d="M720.0678,1821.3269 A18.22671,18.22671 0 0 0 703.97455,1794.5433 L615.0414,1794.5433 A18.22671,18.22671 0 0 0 598.9482,1821.3269 L643.41473,1904.9564 A18.22671,18.22671 0 0 0 675.6012,1904.9564 z" stroke="#000000" stroke-width="0.24" stroke-linecap="round" stroke-linejoin="round" fill="none" />
    <path d="M542.3152,2006.8126 A18.22671,18.22671 0 0 0 574.50165,2006.8126 L628.65955,1904.9564 A18.22671,18.22671 0 0 0 628.65955,1887.8427 L584.19293,1804.2131 A18.22671,18.22671 0 0 0 568.09973,1794.5433 L459.7839,1794.5433 A18.22671,18.22671 0 0 0 443.69067,1821.3269 z" stroke="#000000" stroke-width="0.24" stroke-linecap="round" stroke-linejoin="round" fill="none" />
    <path d="M785.98114,1794.5433 C780.0976,1794.3108 772.7864,1798.1704 769.7901,1804.3983 C743.0998,1854.5883 716.415,1904.7964 689.7216,1954.9761 C676.37494,1980.0659 663.0261,2005.1487 649.6898,2030.2727 C636.35364,2055.3967 623.02985,2080.562 609.6114,2105.4153 C608.9129,2106.709 608.21423,2108.0015 607.386,2109.2102 C606.5577,2110.4187 605.59985,2111.543 604.5599,2112.609 C602.4799,2114.7405 600.0714,2116.6382 597.4343,2118.1401 C595.01465,2119.5183 592.4026,2120.563 589.77795,2121.247 C587.1534,2121.931 584.5163,2122.2546 581.8792,2122.2546 C579.2422,2122.2546 576.60504,2121.931 573.98047,2121.247 C571.35583,2120.563 568.7438,2119.5183 566.32416,2118.1401 C563.687,2116.6382 561.27856,2114.7405 559.1986,2112.609 C558.1586,2111.543 557.20074,2110.4187 556.3725,2109.2102 C555.5442,2108.0015 554.8455,2106.709 554.1471,2105.4153 C540.72864,2080.562 527.40485,2055.3967 514.0686,2030.2727 C500.73233,2005.1487 487.3835,1980.0659 474.03683,1954.9761 C447.34348,1904.7964 420.6587,1854.5883 393.96838,1804.3983 C392.47833,1801.377 389.8153,1798.7476 386.95938,1797.0249 C384.10345,1795.3022 381.05463,1794.4863 377.87057,1794.5204 C373.23917,1794.57 368.32153,1796.4178 364.88913,1799.8817 C361.4567,1803.3457 359.50946,1808.4257 359.50104,1812.8528 C359.4983,1814.3054 359.70428,1815.6877 360.0839,1817.1476 C360.46356,1818.6073 361.0169,1820.1443 361.80328,1821.5492 C394.11856,1882.3252 426.43286,1943.1024 458.7485,2003.8782 C491.0642,2064.6536 523.3812,2125.4277 555.69055,2186.2112 C557.37225,2189.3748 559.0539,2192.5386 560.7431,2195.6929 C561.58777,2197.2703 562.43427,2198.8452 563.26306,2200.4417 C564.0918,2202.038 564.9029,2203.6558 565.7896,2205.1824 C566.6033,2206.583 567.48065,2207.9067 568.595,2209.1096 C569.7093,2210.312 571.0606,2211.3938 572.50256,2212.259 C575.38635,2213.99 578.6328,2214.8567 581.8792,2214.8567 C585.1257,2214.8567 588.37213,2213.99 591.2559,2212.259 C592.6979,2211.3938 594.04913,2210.312 595.1635,2209.1096 C596.27783,2207.9067 597.1552,2206.583 597.9689,2205.1824 C598.8556,2203.6558 599.6667,2202.038 600.4954,2200.4417 C601.3242,2198.8452 602.1707,2197.2703 603.0154,2195.6929 C604.7046,2192.5386 606.3862,2189.3748 608.06793,2186.2112 C640.37726,2125.4275 672.6943,2064.6536 705.00995,2003.8782 C737.32556,1943.1024 769.6399,1882.3252 801.9552,1821.5492 C802.7404,1820.1437 803.29724,1818.6084 803.67456,1817.1476 C804.0519,1815.6866 804.2497,1814.3 804.24725,1812.8477 C804.24005,1808.4211 802.3734,1803.3822 798.8694,1799.8817 C795.36523,1796.3813 790.22363,1794.4194 785.98114,1794.5433 z" stroke="#000000" stroke-width="0.24" stroke-linecap="round" stroke-linejoin="round" fill="none" />
    <path d="M1446.0693,1197.243 C1440.1859,1197.0105 1432.8746,1200.87 1429.8784,1207.098 C1403.188,1257.2881 1376.5033,1307.4961 1349.8099,1357.6758 C1336.4633,1382.7656 1323.1144,1407.8484 1309.7781,1432.9725 C1296.4419,1458.0966 1283.1182,1483.262 1269.6996,1508.1151 C1269.0012,1509.4087 1268.3025,1510.7014 1267.4742,1511.9099 C1266.646,1513.1184 1265.6881,1514.2427 1264.6481,1515.3087 C1262.5681,1517.4403 1260.1597,1519.3381 1257.5226,1520.84 C1255.103,1522.2179 1252.4908,1523.2626 1249.8662,1523.9467 C1247.2417,1524.6309 1244.6046,1524.9543 1241.9675,1524.9543 C1239.3304,1524.9543 1236.6932,1524.6309 1234.0687,1523.9467 C1231.4441,1523.2626 1228.832,1522.2179 1226.4125,1520.84 C1223.7753,1519.3381 1221.3668,1517.4403 1219.2869,1515.3087 C1218.247,1514.2427 1217.2891,1513.1184 1216.4607,1511.9099 C1215.6324,1510.7014 1214.9338,1509.4087 1214.2354,1508.1151 C1200.8169,1483.262 1187.4932,1458.0966 1174.1569,1432.9725 C1160.8206,1407.8484 1147.4718,1382.7656 1134.1251,1357.6758 C1107.4318,1307.4961 1080.747,1257.2881 1054.0566,1207.098 C1052.5667,1204.0767 1049.9036,1201.4473 1047.0477,1199.7246 C1044.1918,1198.002 1041.143,1197.186 1037.9589,1197.2202 C1033.3274,1197.2697 1028.4098,1199.1176 1024.9774,1202.5815 C1021.545,1206.0454 1019.5977,1211.1255 1019.58923,1215.5525 C1019.58655,1217.0052 1019.7926,1218.3876 1020.1721,1219.8472 C1020.5518,1221.307 1021.1052,1222.8441 1021.89154,1224.2489 C1054.2068,1285.0249 1086.5211,1345.8021 1118.8368,1406.5778 C1151.1525,1467.3534 1183.4695,1528.1274 1215.7788,1588.9108 C1217.4604,1592.0745 1219.1421,1595.2383 1220.8314,1598.3928 C1221.676,1599.9701 1222.5225,1601.545 1223.3512,1603.1415 C1224.1802,1604.7378 1224.9911,1606.3556 1225.8779,1607.8821 C1226.6915,1609.2827 1227.569,1610.6064 1228.6832,1611.8092 C1229.7976,1613.0118 1231.1489,1614.0934 1232.5908,1614.9589 C1235.4746,1616.6897 1238.7211,1617.5563 1241.9675,1617.5563 C1245.214,1617.5563 1248.4603,1616.6897 1251.3442,1614.9589 C1252.7861,1614.0934 1254.1375,1613.0118 1255.2518,1611.8092 C1256.3661,1610.6064 1257.2435,1609.2827 1258.0571,1607.8821 C1258.9438,1606.3556 1259.755,1604.7378 1260.5837,1603.1415 C1261.4125,1601.545 1262.259,1599.9701 1263.1036,1598.3928 C1264.7928,1595.2382 1266.4745,1592.0745 1268.1562,1588.9108 C1300.4656,1528.1274 1332.7826,1467.3534 1365.0981,1406.5778 C1397.4138,1345.8021 1429.7281,1285.0249 1462.0435,1224.2489 C1462.8287,1222.8435 1463.3855,1221.3082 1463.7628,1219.8472 C1464.1401,1218.3864 1464.338,1216.9998 1464.3354,1215.5474 C1464.3284,1211.1208 1462.4617,1206.0819 1458.9576,1202.5815 C1455.4535,1199.0812 1450.3119,1197.1191 1446.0693,1197.243 z" stroke="#000000" stroke-width="0.24" stroke-linecap="round" stroke-linejoin="round" fill="none" />
    <path d="M1187.416,1408.9806 A18.22671,18.22671 0 0 0 1219.6025,1408.9806 L1273.619,1307.3903 A18.22671,18.22671 0 0 0 1273.619,1290.2764 L1229.2938,1206.9127 A18.22671,18.22671 0 0 0 1213.2006,1197.243 L1105.1675,1197.243 A18.22671,18.22671 0 0 0 1089.0743,1224.0267 z" stroke="#000000" stroke-width="0.24" stroke-linecap="round" stroke-linejoin="round" fill="none" />
    <path d="M1394.8607,1224.0267 A18.22671,18.22671 0 0 0 1378.7675,1197.243 L1290.1171,1197.243 A18.22671,18.22671 0 0 0 1274.0238,1224.0267 L1318.3491,1307.3903 A18.22671,18.22671 0 0 0 1350.5355,1307.3903 z" stroke="#000000" stroke-width="0.24" stroke-linecap="round" stroke-linejoin="round" fill="none" />
    <path d="M1312.0773,1362.6058 C1310.1982,1358.8016 1306.0419,1355.1835 1301.313,1353.7324 C1296.5841,1352.2815 1291.2823,1352.9979 1287.3307,1355.0762 C1285.787,1355.8881 1284.4495,1356.9077 1283.1707,1358.2 C1281.892,1359.4921 1280.6721,1361.0566 1279.7949,1362.7874 C1261.8627,1396.5132 1243.9304,1430.2393 1225.9982,1463.9651 C1224.4585,1466.6589 1223.7507,1469.9493 1223.7418,1472.9624 C1223.7329,1475.9753 1224.4231,1478.711 1225.8009,1481.2352 C1228.0057,1485.2739 1231.9716,1488.7717 1236.6385,1490.1833 C1241.3055,1491.5951 1246.6737,1490.9208 1250.6294,1488.8451 C1252.1747,1488.0342 1253.5044,1487.0095 1254.7808,1485.716 C1256.0574,1484.4222 1257.2805,1482.8599 1258.1565,1481.1284 C1276.0887,1447.4026 1294.021,1413.6766 1311.9534,1379.9508 C1315.1227,1374.4635 1314.7214,1367.2455 1312.0773,1362.6058 z" stroke="#000000" stroke-width="0.24" stroke-linecap="round" stroke-linejoin="round" fill="none" />
    <path d="M1922.9064,1386.4445 C1921.0273,1382.6403 1916.8711,1379.022 1912.1421,1377.571 C1907.4131,1376.1201 1902.1116,1376.8365 1898.1598,1378.9148 C1896.6162,1379.7267 1895.2784,1380.7463 1893.9999,1382.0385 C1892.7211,1383.3307 1891.5013,1384.8953 1890.624,1386.6259 C1875.661,1414.7676 1860.698,1442.9093 1845.7349,1471.0509 C1844.1953,1473.7449 1843.4874,1477.0353 1843.4785,1480.0482 C1843.4696,1483.0613 1844.1598,1485.7969 1845.5377,1488.321 C1847.7426,1492.3599 1851.7083,1495.8575 1856.3752,1497.2692 C1861.0422,1498.6808 1866.4104,1498.0066 1870.3662,1495.9309 C1871.9114,1495.12 1873.2411,1494.0952 1874.5177,1492.8018 C1875.7941,1491.5082 1877.0172,1489.9457 1877.8933,1488.2144 C1892.8563,1460.0728 1907.8195,1431.9309 1922.7825,1403.7893 C1925.9517,1398.3021 1925.5505,1391.0841 1922.9064,1386.4445 z" stroke="#000000" stroke-width="0.24" stroke-linecap="round" stroke-linejoin="round" fill="none" />
    <path d="M2014.5974,1231.1125 A18.22671,18.22671 0 0 0 1998.5042,1204.3289 L1927.669,1204.3289 A18.22671,18.22671 0 0 0 1911.5758,1231.1125 L1946.9933,1297.7234 A18.22671,18.22671 0 0 0 1979.1798,1297.7233 z" stroke="#000000" stroke-width="0.24" stroke-linecap="round" stroke-linejoin="round" fill="none" />
    <path d="M1789.3375,1382.5608 A18.22671,18.22671 0 0 0 1821.524,1382.5608 L1866.6329,1297.7234 A18.22671,18.22671 0 0 0 1866.6329,1280.6095 L1831.2153,1213.9987 A18.22671,18.22671 0 0 0 1815.1221,1204.3289 L1724.9043,1204.3289 A18.22671,18.22671 0 0 0 1708.811,1231.1125 z" stroke="#000000" stroke-width="0.24" stroke-linecap="round" stroke-linejoin="round" fill="none" />
    <path d="M2065.8062,1204.3289 C2059.9226,1204.0964 2052.6116,1207.9558 2049.615,1214.184 C2022.9248,1264.3739 1996.2401,1314.5819 1969.5466,1364.7616 C1956.2,1389.8514 1942.8511,1414.9343 1929.5149,1440.0583 C1916.1786,1465.1824 1902.8549,1490.3478 1889.4363,1515.2008 C1888.7379,1516.4945 1888.0392,1517.7872 1887.2109,1518.9957 C1886.3828,1520.2043 1885.4249,1521.3286 1884.385,1522.3944 C1882.305,1524.5261 1879.8965,1526.424 1877.2594,1527.9258 C1874.8397,1529.3038 1872.2275,1530.3484 1869.603,1531.0326 C1866.9784,1531.7166 1864.3413,1532.0403 1861.7042,1532.0403 C1859.0671,1532.0403 1856.4302,1531.7166 1853.8054,1531.0325 C1851.1809,1530.3484 1848.5688,1529.3037 1846.1492,1527.9258 C1843.5121,1526.424 1841.1035,1524.5261 1839.0236,1522.3944 C1837.9836,1521.3286 1837.0258,1520.2043 1836.1975,1518.9957 C1835.3693,1517.7872 1834.6705,1516.4945 1833.9722,1515.2008 C1820.5536,1490.3478 1807.2299,1465.1824 1793.8936,1440.0583 C1780.5573,1414.9343 1767.2085,1389.8514 1753.8618,1364.7616 C1727.1685,1314.5819 1700.4836,1264.3739 1673.7935,1214.184 C1672.3033,1211.1626 1669.6403,1208.5331 1666.7844,1206.8104 C1663.9285,1205.0878 1660.8796,1204.272 1657.6956,1204.3059 C1653.0642,1204.3555 1648.1466,1206.2035 1644.7141,1209.6674 C1641.2817,1213.1313 1639.3345,1218.2113 1639.326,1222.6384 C1639.3232,1224.0911 1639.5293,1225.4734 1639.9089,1226.9331 C1640.2886,1228.3928 1640.8419,1229.9299 1641.6283,1231.3347 C1673.9435,1292.1108 1706.2578,1352.888 1738.5735,1413.6636 C1770.8892,1474.4393 1803.2063,1535.2133 1835.5155,1595.9966 C1837.1971,1599.1603 1838.8788,1602.324 1840.5681,1605.4786 C1841.4127,1607.0559 1842.2593,1608.631 1843.0881,1610.2273 C1843.9169,1611.8237 1844.7279,1613.4415 1845.6146,1614.968 C1846.4282,1616.3687 1847.3057,1617.6924 1848.42,1618.895 C1849.5343,1620.0977 1850.8856,1621.1792 1852.3275,1622.0447 C1855.2114,1623.7755 1858.4578,1624.6421 1861.7042,1624.6421 C1864.9507,1624.6421 1868.1971,1623.7755 1871.081,1622.0447 C1872.523,1621.1792 1873.8741,1620.0977 1874.9885,1618.895 C1876.1029,1617.6924 1876.9802,1616.3687 1877.7938,1614.968 C1878.6807,1613.4415 1879.4917,1611.8237 1880.3204,1610.2273 C1881.1492,1608.631 1881.9957,1607.0559 1882.8403,1605.4786 C1884.5295,1602.324 1886.2112,1599.1603 1887.893,1595.9966 C1920.2023,1535.2133 1952.5193,1474.4392 1984.835,1413.6636 C2017.1505,1352.888 2049.465,1292.1108 2081.7803,1231.3347 C2082.5654,1229.9293 2083.122,1228.3939 2083.4995,1226.9331 C2083.877,1225.4722 2084.0747,1224.0857 2084.0723,1222.6333 C2084.0652,1218.2067 2082.1985,1213.1677 2078.6943,1209.6674 C2075.1902,1206.167 2070.0488,1204.2051 2065.8062,1204.3289 z" stroke="#000000" stroke-width="0.24" stroke-linecap="round" stroke-linejoin="round" fill="none" />
    <path d="M679.48254,1344.6066 C677.6036,1340.8024 673.44727,1337.1841 668.71826,1335.7333 C663.9893,1334.2823 658.6877,1334.9987 654.73596,1337.077 C653.1923,1337.8889 651.85474,1338.9086 650.5759,1340.2007 C649.2972,1341.4928 648.0774,1343.0575 647.20026,1344.7881 C626.7701,1383.2119 606.33997,1421.6356 585.9098,1460.0594 C584.3702,1462.7534 583.6623,1466.0437 583.6534,1469.0568 C583.6445,1472.0698 584.3346,1474.8054 585.7126,1477.3296 C587.9173,1481.3684 591.8831,1484.8661 596.5501,1486.2777 C601.2171,1487.6895 606.58527,1487.0151 610.5411,1484.9395 C612.08624,1484.1285 613.41595,1483.1039 614.69244,1481.8103 C615.96893,1480.5166 617.19214,1478.9542 618.0681,1477.2229 C638.4983,1438.7991 658.92847,1400.3752 679.35864,1361.9515 C682.5279,1356.4644 682.1267,1349.2462 679.48254,1344.6066 z" stroke="#000000" stroke-width="0.24" stroke-linecap="round" stroke-linejoin="round" fill="none" />
    <path d="M754.7723,1220.1211 A18.22671,18.22671 0 0 0 738.6791,1193.3374 L635.04126,1193.3374 A18.22671,18.22671 0 0 0 618.948,1220.1211 L670.7669,1317.5782 A18.22671,18.22671 0 0 0 702.95337,1317.5782 z" stroke="#000000" stroke-width="0.24" stroke-linecap="round" stroke-linejoin="round" fill="none" />
    <path d="M562.315,1433.2621 A18.22671,18.22671 0 0 0 594.50146,1433.2621 L656.0117,1317.5782 A18.22671,18.22671 0 0 0 656.0117,1300.4644 L604.1928,1203.0072 A18.22671,18.22671 0 0 0 588.09955,1193.3374 L465.07913,1193.3374 A18.22671,18.22671 0 0 0 448.9859,1220.1211 z" stroke="#000000" stroke-width="0.24" stroke-linecap="round" stroke-linejoin="round" fill="none" />
    <path d="M805.981,1193.3374 C800.0975,1193.105 792.78625,1196.9644 789.79,1203.1924 C763.0996,1253.3824 736.41486,1303.5905 709.7215,1353.7701 C696.3748,1378.86 683.026,1403.9429 669.6897,1429.0669 C656.35345,1454.1909 643.0297,1479.3563 629.6112,1504.2095 C628.9128,1505.503 628.2141,1506.7958 627.38586,1508.0043 C626.55756,1509.2128 625.59973,1510.3372 624.55975,1511.4031 C622.4798,1513.5347 620.0713,1515.4324 617.43414,1516.9343 C615.0145,1518.3123 612.4024,1519.3569 609.77783,1520.041 C607.15326,1520.7251 604.5162,1521.0487 601.8791,1521.0487 C599.242,1521.0487 596.6049,1520.7251 593.9803,1520.041 C591.3557,1519.3569 588.7436,1518.3123 586.324,1516.9343 C583.6868,1515.4324 581.2784,1513.5347 579.1985,1511.4031 C578.15845,1510.3372 577.20056,1509.2128 576.3724,1508.0043 C575.54407,1506.7957 574.8454,1505.503 574.147,1504.2095 C560.72845,1479.3563 547.4047,1454.1909 534.0684,1429.0669 C520.7322,1403.9429 507.3834,1378.86 494.0367,1353.7701 C467.34335,1303.5905 440.65854,1253.3824 413.96823,1203.1924 C412.4782,1200.1711 409.8152,1197.5416 406.95923,1195.819 C404.1033,1194.0963 401.0545,1193.2805 397.87042,1193.3145 C393.23904,1193.364 388.3214,1195.2119 384.88898,1198.6759 C381.45657,1202.1399 379.5093,1207.2198 379.50092,1211.647 C379.49817,1213.0996 379.70413,1214.4819 380.08377,1215.9417 C380.46344,1217.4012 381.01675,1218.9385 381.80313,1220.3433 C414.1184,1281.1193 446.43274,1341.8965 478.74838,1402.6721 C511.06406,1463.4478 543.3811,1524.2218 575.69037,1585.0051 C577.3721,1588.1688 579.0537,1591.3325 580.743,1594.487 C581.58765,1596.0645 582.43414,1597.6394 583.2629,1599.2358 C584.0917,1600.8323 584.90265,1602.45 585.7895,1603.9764 C586.60315,1605.3771 587.4805,1606.7008 588.59485,1607.9036 C589.70917,1609.1062 591.0605,1610.1877 592.5023,1611.0532 C595.3862,1612.784 598.6326,1613.6506 601.8791,1613.6506 C605.12555,1613.6506 608.37195,1612.784 611.2558,1611.0532 C612.69775,1610.1877 614.049,1609.1062 615.1633,1607.9036 C616.2777,1606.7008 617.1551,1605.3771 617.9687,1603.9764 C618.85547,1602.45 619.6665,1600.8323 620.4953,1599.2358 C621.3241,1597.6394 622.1706,1596.0645 623.0152,1594.487 C624.70447,1591.3325 626.3861,1588.1688 628.06775,1585.0051 C660.37714,1524.2218 692.69415,1463.4478 725.0098,1402.6721 C757.32544,1341.8965 789.6398,1281.1193 821.9551,1220.3433 C822.7403,1218.9379 823.2971,1217.4026 823.67444,1215.9417 C824.0517,1214.4807 824.2495,1213.0942 824.24713,1211.6417 C824.2399,1207.2152 822.3733,1202.1763 818.8692,1198.6759 C815.36505,1195.1755 810.22345,1193.2135 805.981,1193.3374 z" stroke="#000000" stroke-width="0.24" stroke-linecap="round" stroke-linejoin="round" fill="none" />
    <path d="M1922.7155,1977.6603 C1920.8364,1973.8561 1916.6802,1970.2378 1911.9512,1968.7867 C1907.2222,1967.336 1901.9205,1968.0522 1897.9689,1970.1307 C1896.4253,1970.9426 1895.0875,1971.9622 1893.8088,1973.2543 C1892.53,1974.5464 1891.3103,1976.111 1890.4331,1977.8417 C1877.9209,2001.374 1865.4086,2024.9065 1852.8964,2048.439 C1851.3567,2051.133 1850.6488,2054.423 1850.6399,2057.4363 C1850.631,2060.4492 1851.321,2063.1848 1852.6991,2065.709 C1854.9038,2069.748 1858.8696,2073.2456 1863.5366,2074.6572 C1868.2036,2076.0688 1873.5718,2075.3945 1877.5276,2073.319 C1879.0729,2072.508 1880.4025,2071.4834 1881.679,2070.19 C1882.9554,2068.8962 1884.1787,2067.3337 1885.0547,2065.6025 C1897.567,2042.07 1910.0792,2018.5376 1922.5914,1995.0051 C1925.7609,1989.518 1925.3596,1982.2999 1922.7155,1977.6603 z" stroke="#000000" stroke-width="0.24" stroke-linecap="round" stroke-linejoin="round" fill="none" />
    <path d="M2007.0542,1836.156 A18.22671,18.22671 0 0 0 1990.9609,1809.3723 L1934.8304,1809.3723 A18.22671,18.22671 0 0 0 1918.7372,1836.156 L1946.8024,1888.9391 A18.22671,18.22671 0 0 0 1978.9889,1888.9391 z" stroke="#000000" stroke-width="0.24" stroke-linecap="round" stroke-linejoin="round" fill="none" />
  </g>
  <path d="M655.72894,-1497.1444 C653.8499,-1500.9486 649.69366,-1504.5668 644.96466,-1506.0178 C640.23566,-1507.4688 634.9341,-1506.7523 630.9823,-1504.6741 C629.4387,-1503.8622 628.101,-1502.8425 626.8223,-1501.5504 C625.5436,-1500.2582 624.3238,-1498.6936 623.44666,-1496.963 C610.9343,-1473.4304 598.42206,-1449.898 585.9098,-1426.3656 C584.3702,-1423.6716 583.6623,-1420.3813 583.6534,-1417.3683 C583.6445,-1414.3552 584.3346,-1411.6196 585.7126,-1409.0955 C587.9173,-1405.0566 591.8831,-1401.5591 596.5501,-1400.1473 C601.2171,-1398.7357 606.58527,-1399.4099 610.5411,-1401.4856 C612.08624,-1402.2965 613.41595,-1403.3213 614.69244,-1404.6147 C615.96893,-1405.9084 617.19214,-1407.4708 618.0681,-1409.2021 C630.58044,-1432.7346 643.0927,-1456.2671 655.605,-1479.7996 C658.7743,-1485.2867 658.3731,-1492.5048 655.72894,-1497.1444 A18.22671,18.22671 0 0 0 723.9744,-1665.4323 A18.22671,18.22671 0 0 0 651.7506,-1638.6487 A18.22671,18.22671 0 0 0 712.0024,-1585.8656 A18.22671,18.22671 0 0 0 561.69885,-1514.8557 A18.22671,18.22671 0 0 0 599.45544,-1602.9794 A18.22671,18.22671 0 0 0 555.29694,-1665.4323 A18.22671,18.22671 0 0 0 463.69052,-1638.6487" stroke="#960000" stroke-width="0.24" stroke-linecap="round" stroke-linejoin="round" fill="none" />
  <path d="M805.981,-1665.4323 C800.0975,-1665.6648 792.78625,-1661.8052 789.79,-1655.5773 C763.0996,-1605.3873 736.41486,-1555.1792 709.7215,-1504.9995 C696.3748,-1479.9097 683.026,-1454.8269 669.6897,-1429.7029 C656.35345,-1404.5787 643.0297,-1379.4133 629.6112,-1354.5602 C628.9128,-1353.2667 628.2141,-1351.9739 627.38586,-1350.7654 C626.55756,-1349.5569 625.59973,-1348.4325 624.55975,-1347.3667 C622.4798,-1345.235 620.0713,-1343.3372 617.43414,-1341.8354 C615.0145,-1340.4574 612.4024,-1339.4128 609.77783,-1338.7286 C607.15326,-1338.0446 604.5162,-1337.721 601.8791,-1337.721 C599.242,-1337.721 596.6049,-1338.0446 593.9803,-1338.7286 C591.3557,-1339.4128 588.7436,-1340.4574 586.324,-1341.8354 C583.6868,-1343.3372 581.2784,-1345.235 579.1985,-1347.3667 C578.15845,-1348.4325 577.20056,-1349.5569 576.3724,-1350.7654 C575.54407,-1351.9739 574.8454,-1353.2667 574.147,-1354.5602 C560.72845,-1379.4133 547.4047,-1404.5787 534.0684,-1429.7029 C520.7322,-1454.8269 507.3834,-1479.9097 494.0367,-1504.9995 C467.34335,-1555.1792 440.65854,-1605.3873 413.96823,-1655.5773 C412.4782,-1658.5986 409.8152,-1661.228 406.95923,-1662.9507 C404.1033,-1664.6733 401.0545,-1665.4893 397.87042,-1665.4552 C393.23904,-1665.4056 388.3214,-1663.5577 384.88898,-1660.0939 C381.45657,-1656.6299 379.5093,-1651.5499 379.50092,-1647.1228 C379.49817,-1645.6702 379.70413,-1644.2878 380.08377,-1642.8281 C380.46344,-1641.3683 381.01675,-1639.8313 381.80313,-1638.4264 C414.1184,-1577.6504 446.43274,-1516.8732 478.74838,-1456.0975 C511.06406,-1395.3219 543.3811,-1334.5479 575.69037,-1273.7646 C577.3721,-1270.601 579.0537,-1267.437 580.743,-1264.2825 C581.58765,-1262.7053 582.43414,-1261.1302 583.2629,-1259.5338 C584.0917,-1257.9375 584.90265,-1256.3197 585.7895,-1254.7932 C586.60315,-1253.3926 587.4805,-1252.0688 588.59485,-1250.8662 C589.70917,-1249.6635 591.0605,-1248.5819 592.5023,-1247.7166 C595.3862,-1245.9857 598.6326,-1245.119 601.8791,-1245.119 C605.12555,-1245.119 608.37195,-1245.9857 611.2558,-1247.7166 C612.69775,-1248.5819 614.049,-1249.6635 615.1633,-1250.8662 C616.2777,-1252.0688 617.1551,-1253.3926 617.9687,-1254.7932 C618.85547,-1256.3197 619.6665,-1257.9375 620.4953,-1259.5338 C621.3241,-1261.1302 622.1706,-1262.7053 623.0152,-1264.2825 C624.70447,-1267.437 626.3861,-1270.601 628.06775,-1273.7646 C660.37714,-1334.5479 692.69415,-1395.3219 725.0098,-1456.0975 C757.32544,-1516.8733 789.6398,-1577.6504 821.9551,-1638.4264 C822.7403,-1639.8319 823.2971,-1641.3672 823.67444,-1642.8281 C824.0517,-1644.289 824.2495,-1645.6755 824.24713,-1647.1279 C824.2399,-1651.5544 822.3733,-1656.5934 818.8692,-1660.0939 C815.36505,-1663.5942 810.22345,-1665.5562 805.981,-1665.4323 z" stroke="#960000" stroke-width="0.24" stroke-linecap="round" stroke-linejoin="round" fill="none" />
</svg>