<svg width="403" height="93" viewBox="0 0 403 93" fill="none" xmlns="http://www.w3.org/2000/svg">
<rect x="1.5" y="1.5" width="90" height="90" rx="16" stroke="#5F0F40" stroke-width="3"/>
<path d="M62.6 51.2519C62.1179 50.2759 61.0517 49.3475 59.8384 48.9752C58.6252 48.6029 57.2651 48.7867 56.2513 49.32C55.8553 49.5283 55.5121 49.7899 55.184 50.1214C54.856 50.453 54.543 50.8545 54.318 51.2985C50.3462 58.7695 46.3744 66.2405 42.4026 73.7115C42.0076 74.4027 41.826 75.2469 41.8238 76.02C41.8215 76.7931 41.9985 77.4951 42.352 78.1428C42.9177 79.179 43.9351 80.0765 45.1324 80.4387C46.3297 80.8009 47.7069 80.6279 48.7218 80.0953C49.1182 79.8873 49.4594 79.6244 49.7869 79.2924C50.1143 78.9605 50.4281 78.5595 50.6529 78.1153C54.6246 70.6444 58.5965 63.1734 62.5682 55.7024C63.3813 54.2945 63.2784 52.4425 62.6 51.2519Z" fill="#5F0F40"/>
<path d="M81.9524 19.2423C82.3312 18.5297 82.5193 17.7312 82.4981 16.9243C82.477 16.1175 82.2475 15.3299 81.8318 14.638C81.4162 13.9462 80.8286 13.3737 80.1262 12.9763C79.4239 12.5789 78.6306 12.37 77.8237 12.37H58.8528C58.0458 12.37 57.2526 12.5789 56.5502 12.9763C55.8478 13.3738 55.2603 13.9462 54.8447 14.6381C54.429 15.3299 54.1995 16.1175 54.1784 16.9243C54.1572 17.7311 54.3453 18.5297 54.7241 19.2423L64.2095 37.0843C64.6079 37.8336 65.2026 38.4604 65.9299 38.8975C66.6572 39.3346 67.4897 39.5655 68.3382 39.5655C69.1868 39.5655 70.0193 39.3346 70.7466 38.8975C71.4739 38.4604 72.0686 37.8337 72.467 37.0844L81.9524 19.2423Z" fill="#5F0F40"/>
<path d="M32.5045 59.6031C32.9028 60.3524 33.4976 60.9792 34.2249 61.4163C34.9522 61.8534 35.7847 62.0843 36.6332 62.0843C37.4817 62.0843 38.3143 61.8534 39.0416 61.4163C39.7689 60.9792 40.3636 60.3524 40.762 59.6031L52.7337 37.0843C53.0931 36.4083 53.281 35.6544 53.281 34.8887C53.281 34.1231 53.0931 33.3692 52.7337 32.6932L43.2483 14.8511C42.8499 14.1018 42.2552 13.4751 41.5279 13.038C40.8006 12.6009 39.968 12.37 39.1195 12.37H15.1761C14.3691 12.37 13.5758 12.5789 12.8735 12.9763C12.1711 13.3737 11.5835 13.9462 11.1679 14.638C10.7523 15.3299 10.5227 16.1175 10.5016 16.9243C10.4805 17.7312 10.6685 18.5297 11.0474 19.2423L32.5045 59.6031Z" fill="#5F0F40"/>
<path d="M133.79 85L109.04 8.22H125.98L137.42 45.07L143.47 69.16H143.8L149.63 45.07L161.07 8.22H177.46L152.49 85H133.79ZM204.656 86.32C200.256 86.32 196.332 85.6233 192.886 84.23C189.439 82.7633 186.506 80.7467 184.086 78.18C181.739 75.54 179.942 72.35 178.696 68.61C177.522 64.87 176.936 60.69 176.936 56.07C176.936 51.5233 177.522 47.4167 178.696 43.75C179.869 40.01 181.592 36.82 183.866 34.18C186.212 31.54 189.072 29.5233 192.446 28.13C195.819 26.6633 199.669 25.93 203.996 25.93C208.762 25.93 212.832 26.7367 216.206 28.35C219.652 29.9633 222.439 32.1267 224.566 34.84C226.766 37.5533 228.342 40.7067 229.296 44.3C230.322 47.82 230.836 51.5233 230.836 55.41V60.25H193.766V61.13C193.766 64.9433 194.792 67.9867 196.846 70.26C198.899 72.46 202.126 73.56 206.526 73.56C209.899 73.56 212.649 72.9 214.776 71.58C216.902 70.1867 218.882 68.5367 220.716 66.63L228.856 76.75C226.289 79.7567 222.916 82.1033 218.736 83.79C214.629 85.4767 209.936 86.32 204.656 86.32ZM204.326 37.92C201.026 37.92 198.422 39.02 196.516 41.22C194.682 43.3467 193.766 46.2067 193.766 49.8V50.68H214.006V49.69C214.006 46.17 213.199 43.3467 211.586 41.22C210.046 39.02 207.626 37.92 204.326 37.92ZM259.713 86.32C254.14 86.32 249.447 85.44 245.633 83.68C241.82 81.8467 238.41 79.28 235.403 75.98L244.973 66.3C247.027 68.5733 249.3 70.37 251.793 71.69C254.287 73.01 257.11 73.67 260.263 73.67C263.49 73.67 265.727 73.1933 266.973 72.24C268.22 71.2133 268.843 69.8567 268.843 68.17C268.843 65.4567 266.9 63.8433 263.013 63.33L256.743 62.56C243.763 60.9467 237.273 55.0067 237.273 44.74C237.273 41.9533 237.787 39.4233 238.813 37.15C239.913 34.8033 241.417 32.8233 243.323 31.21C245.303 29.5233 247.65 28.24 250.363 27.36C253.15 26.4067 256.267 25.93 259.713 25.93C262.72 25.93 265.36 26.15 267.633 26.59C269.98 26.9567 272.033 27.5433 273.793 28.35C275.627 29.0833 277.277 30.0367 278.743 31.21C280.283 32.31 281.787 33.5567 283.253 34.95L273.903 44.52C272.07 42.6867 269.98 41.2567 267.633 40.23C265.36 39.13 263.013 38.58 260.593 38.58C257.807 38.58 255.827 39.02 254.653 39.9C253.48 40.78 252.893 41.9533 252.893 43.42C252.893 44.96 253.297 46.17 254.103 47.05C254.983 47.8567 256.597 48.4433 258.943 48.81L265.433 49.69C278.12 51.3767 284.463 57.17 284.463 67.07C284.463 69.8567 283.877 72.4233 282.703 74.77C281.53 77.1167 279.843 79.17 277.643 80.93C275.517 82.6167 272.913 83.9367 269.833 84.89C266.827 85.8433 263.453 86.32 259.713 86.32ZM312.191 86.32C306.618 86.32 301.924 85.44 298.111 83.68C294.298 81.8467 290.888 79.28 287.881 75.98L297.451 66.3C299.504 68.5733 301.778 70.37 304.271 71.69C306.764 73.01 309.588 73.67 312.741 73.67C315.968 73.67 318.204 73.1933 319.451 72.24C320.698 71.2133 321.321 69.8567 321.321 68.17C321.321 65.4567 319.378 63.8433 315.491 63.33L309.221 62.56C296.241 60.9467 289.751 55.0067 289.751 44.74C289.751 41.9533 290.264 39.4233 291.291 37.15C292.391 34.8033 293.894 32.8233 295.801 31.21C297.781 29.5233 300.128 28.24 302.841 27.36C305.628 26.4067 308.744 25.93 312.191 25.93C315.198 25.93 317.838 26.15 320.111 26.59C322.458 26.9567 324.511 27.5433 326.271 28.35C328.104 29.0833 329.754 30.0367 331.221 31.21C332.761 32.31 334.264 33.5567 335.731 34.95L326.381 44.52C324.548 42.6867 322.458 41.2567 320.111 40.23C317.838 39.13 315.491 38.58 313.071 38.58C310.284 38.58 308.304 39.02 307.131 39.9C305.958 40.78 305.371 41.9533 305.371 43.42C305.371 44.96 305.774 46.17 306.581 47.05C307.461 47.8567 309.074 48.4433 311.421 48.81L317.911 49.69C330.598 51.3767 336.941 57.17 336.941 67.07C336.941 69.8567 336.354 72.4233 335.181 74.77C334.008 77.1167 332.321 79.17 330.121 80.93C327.994 82.6167 325.391 83.9367 322.311 84.89C319.304 85.8433 315.931 86.32 312.191 86.32ZM362.011 85C356.437 85 352.331 83.6433 349.691 80.93C347.124 78.2167 345.841 74.2933 345.841 69.16V3.6H362.121V72.35H369.381V85H362.011ZM392.252 85C386.679 85 382.572 83.6433 379.932 80.93C377.366 78.2167 376.082 74.2933 376.082 69.16V3.6H392.362V72.35H399.622V85H392.252Z" fill="#5F0F40"/>
</svg>
