<svg width="403" height="94" viewBox="0 0 403 94" fill="none" xmlns="http://www.w3.org/2000/svg">
<rect x="2" y="2" width="90" height="90" rx="16" stroke="#333333" stroke-width="3"/>
<path d="M63.1 51.7519C62.6179 50.7759 61.5517 49.8475 60.3384 49.4752C59.1252 49.1029 57.7651 49.2867 56.7513 49.82C56.3553 50.0283 56.0121 50.2899 55.684 50.6214C55.356 50.953 55.043 51.3545 54.818 51.7985C50.8462 59.2695 46.8744 66.7405 42.9026 74.2115C42.5076 74.9027 42.326 75.7469 42.3238 76.52C42.3215 77.2931 42.4985 77.9951 42.852 78.6428C43.4177 79.679 44.4351 80.5765 45.6324 80.9387C46.8297 81.3009 48.2069 81.1279 49.2218 80.5953C49.6182 80.3873 49.9594 80.1244 50.2869 79.7924C50.6143 79.4605 50.9281 79.0595 51.1529 78.6153C55.1246 71.1444 59.0965 63.6734 63.0682 56.2024C63.8813 54.7945 63.7784 52.9425 63.1 51.7519Z" fill="#333333"/>
<path d="M82.4524 19.7423C82.8312 19.0297 83.0193 18.2312 82.9981 17.4243C82.977 16.6175 82.7475 15.8299 82.3318 15.138C81.9162 14.4462 81.3286 13.8737 80.6262 13.4763C79.9239 13.0789 79.1306 12.87 78.3237 12.87H59.3528C58.5458 12.87 57.7526 13.0789 57.0502 13.4763C56.3478 13.8738 55.7603 14.4462 55.3447 15.1381C54.929 15.8299 54.6995 16.6175 54.6784 17.4243C54.6572 18.2311 54.8453 19.0297 55.2241 19.7423L64.7095 37.5843C65.1079 38.3336 65.7026 38.9604 66.4299 39.3975C67.1572 39.8346 67.9897 40.0655 68.8382 40.0655C69.6868 40.0655 70.5193 39.8346 71.2466 39.3975C71.9739 38.9604 72.5686 38.3337 72.967 37.5844L82.4524 19.7423Z" fill="#333333"/>
<path d="M33.0045 60.1031C33.4028 60.8524 33.9976 61.4792 34.7249 61.9163C35.4522 62.3534 36.2847 62.5843 37.1332 62.5843C37.9817 62.5843 38.8143 62.3534 39.5416 61.9163C40.2689 61.4792 40.8636 60.8524 41.262 60.1031L53.2337 37.5843C53.5931 36.9083 53.781 36.1544 53.781 35.3887C53.781 34.6231 53.5931 33.8692 53.2337 33.1932L43.7483 15.3511C43.3499 14.6018 42.7552 13.9751 42.0279 13.538C41.3006 13.1009 40.468 12.87 39.6195 12.87H15.6761C14.8691 12.87 14.0758 13.0789 13.3735 13.4763C12.6711 13.8737 12.0835 14.4462 11.6679 15.138C11.2523 15.8299 11.0227 16.6175 11.0016 17.4243C10.9805 18.2312 11.1685 19.0297 11.5474 19.7423L33.0045 60.1031Z" fill="#333333"/>
<path d="M134.29 85.5L109.54 8.72H126.48L137.92 45.57L143.97 69.66H144.3L150.13 45.57L161.57 8.72H177.96L152.99 85.5H134.29ZM205.156 86.82C200.756 86.82 196.832 86.1233 193.386 84.73C189.939 83.2633 187.006 81.2467 184.586 78.68C182.239 76.04 180.442 72.85 179.196 69.11C178.022 65.37 177.436 61.19 177.436 56.57C177.436 52.0233 178.022 47.9167 179.196 44.25C180.369 40.51 182.092 37.32 184.366 34.68C186.712 32.04 189.572 30.0233 192.946 28.63C196.319 27.1633 200.169 26.43 204.496 26.43C209.262 26.43 213.332 27.2367 216.706 28.85C220.152 30.4633 222.939 32.6267 225.066 35.34C227.266 38.0533 228.842 41.2067 229.796 44.8C230.822 48.32 231.336 52.0233 231.336 55.91V60.75H194.266V61.63C194.266 65.4433 195.292 68.4867 197.346 70.76C199.399 72.96 202.626 74.06 207.026 74.06C210.399 74.06 213.149 73.4 215.276 72.08C217.402 70.6867 219.382 69.0367 221.216 67.13L229.356 77.25C226.789 80.2567 223.416 82.6033 219.236 84.29C215.129 85.9767 210.436 86.82 205.156 86.82ZM204.826 38.42C201.526 38.42 198.922 39.52 197.016 41.72C195.182 43.8467 194.266 46.7067 194.266 50.3V51.18H214.506V50.19C214.506 46.67 213.699 43.8467 212.086 41.72C210.546 39.52 208.126 38.42 204.826 38.42ZM260.213 86.82C254.64 86.82 249.947 85.94 246.133 84.18C242.32 82.3467 238.91 79.78 235.903 76.48L245.473 66.8C247.527 69.0733 249.8 70.87 252.293 72.19C254.787 73.51 257.61 74.17 260.763 74.17C263.99 74.17 266.227 73.6933 267.473 72.74C268.72 71.7133 269.343 70.3567 269.343 68.67C269.343 65.9567 267.4 64.3433 263.513 63.83L257.243 63.06C244.263 61.4467 237.773 55.5067 237.773 45.24C237.773 42.4533 238.287 39.9233 239.313 37.65C240.413 35.3033 241.917 33.3233 243.823 31.71C245.803 30.0233 248.15 28.74 250.863 27.86C253.65 26.9067 256.767 26.43 260.213 26.43C263.22 26.43 265.86 26.65 268.133 27.09C270.48 27.4567 272.533 28.0433 274.293 28.85C276.127 29.5833 277.777 30.5367 279.243 31.71C280.783 32.81 282.287 34.0567 283.753 35.45L274.403 45.02C272.57 43.1867 270.48 41.7567 268.133 40.73C265.86 39.63 263.513 39.08 261.093 39.08C258.307 39.08 256.327 39.52 255.153 40.4C253.98 41.28 253.393 42.4533 253.393 43.92C253.393 45.46 253.797 46.67 254.603 47.55C255.483 48.3567 257.097 48.9433 259.443 49.31L265.933 50.19C278.62 51.8767 284.963 57.67 284.963 67.57C284.963 70.3567 284.377 72.9233 283.203 75.27C282.03 77.6167 280.343 79.67 278.143 81.43C276.017 83.1167 273.413 84.4367 270.333 85.39C267.327 86.3433 263.953 86.82 260.213 86.82ZM312.691 86.82C307.118 86.82 302.424 85.94 298.611 84.18C294.798 82.3467 291.388 79.78 288.381 76.48L297.951 66.8C300.004 69.0733 302.278 70.87 304.771 72.19C307.264 73.51 310.088 74.17 313.241 74.17C316.468 74.17 318.704 73.6933 319.951 72.74C321.198 71.7133 321.821 70.3567 321.821 68.67C321.821 65.9567 319.878 64.3433 315.991 63.83L309.721 63.06C296.741 61.4467 290.251 55.5067 290.251 45.24C290.251 42.4533 290.764 39.9233 291.791 37.65C292.891 35.3033 294.394 33.3233 296.301 31.71C298.281 30.0233 300.628 28.74 303.341 27.86C306.128 26.9067 309.244 26.43 312.691 26.43C315.698 26.43 318.338 26.65 320.611 27.09C322.958 27.4567 325.011 28.0433 326.771 28.85C328.604 29.5833 330.254 30.5367 331.721 31.71C333.261 32.81 334.764 34.0567 336.231 35.45L326.881 45.02C325.048 43.1867 322.958 41.7567 320.611 40.73C318.338 39.63 315.991 39.08 313.571 39.08C310.784 39.08 308.804 39.52 307.631 40.4C306.458 41.28 305.871 42.4533 305.871 43.92C305.871 45.46 306.274 46.67 307.081 47.55C307.961 48.3567 309.574 48.9433 311.921 49.31L318.411 50.19C331.098 51.8767 337.441 57.67 337.441 67.57C337.441 70.3567 336.854 72.9233 335.681 75.27C334.508 77.6167 332.821 79.67 330.621 81.43C328.494 83.1167 325.891 84.4367 322.811 85.39C319.804 86.3433 316.431 86.82 312.691 86.82ZM362.511 85.5C356.937 85.5 352.831 84.1433 350.191 81.43C347.624 78.7167 346.341 74.7933 346.341 69.66V4.1H362.621V72.85H369.881V85.5H362.511ZM392.752 85.5C387.179 85.5 383.072 84.1433 380.432 81.43C377.866 78.7167 376.582 74.7933 376.582 69.66V4.1H392.862V72.85H400.122V85.5H392.752Z" fill="#333333"/>
</svg>
